<svg xmlns="http://www.w3.org/2000/svg" width="12" height="16" viewBox="0 0 12 16">
  <defs>
    <style>
      .cls-1 {
        fill: #222;
        fill-rule: evenodd;
      }
    </style>
  </defs>
  <path id="location-pin_copy" data-name="location-pin copy" class="cls-1" d="M1616,48s-6-6.686-6-10a6,6,0,0,1,12,0C1622,41.314,1616,48,1616,48Zm0.02-14a4,4,0,0,0-4,4c0,1.275,1.88,4.252,4,6.9,2.12-2.651,4-5.628,4-6.9A4,4,0,0,0,1616.02,34ZM1615,38a1,1,0,1,1,1,1A1,1,0,0,1,1615,38Z" transform="translate(-1610 -32)"/>
</svg>
