<svg xmlns="http://www.w3.org/2000/svg" width="52.03" height="22" viewBox="0 0 52.03 22">
  <defs>
    <style>
      .cls-1 {
        fill: #fff;
        fill-opacity: 0.4;
        fill-rule: evenodd;
      }
    </style>
  </defs>
  <path id="Arrow" class="cls-1" d="M1175,1335h48a1,1,0,0,1,0,2h-48A1,1,0,0,1,1175,1335Zm40.71-9.73,10.01,10a1.011,1.011,0,1,1-1.43,1.43l-10.01-10A1.011,1.011,0,0,1,1215.71,1325.27Zm10.01,10a1.02,1.02,0,0,1,0,1.43l-10.01,10a1.011,1.011,0,1,1-1.43-1.43l10.01-10A1.02,1.02,0,0,1,1225.72,1335.27Z" transform="translate(-1174 -1325)"/>
</svg>
