<svg xmlns="http://www.w3.org/2000/svg" width="23" height="30" viewBox="0 0 23 30">
  <defs>
    <style>
      .cls-1 {
        fill: #18191a;
        fill-rule: evenodd;
      }
    </style>
  </defs>
  <path id="Menu-opend.svg" class="cls-1" d="M695.5,30h1a0.5,0.5,0,0,1,.5.5v29a0.5,0.5,0,0,1-.5.5h-1a0.5,0.5,0,0,1-.5-0.5v-29A0.5,0.5,0,0,1,695.5,30Zm7,0h1a0.5,0.5,0,0,1,.5.5v29a0.5,0.5,0,0,1-.5.5h-1a0.5,0.5,0,0,1-.5-0.5v-29A0.5,0.5,0,0,1,702.5,30Zm7,0h1a0.5,0.5,0,0,1,.5.5v29a0.5,0.5,0,0,1-.5.5h-1a0.5,0.5,0,0,1-.5-0.5v-29A0.5,0.5,0,0,1,709.5,30Zm7,0h1a0.5,0.5,0,0,1,.5.5v29a0.5,0.5,0,0,1-.5.5h-1a0.5,0.5,0,0,1-.5-0.5v-29A0.5,0.5,0,0,1,716.5,30Z" transform="translate(-695 -30)"/>
</svg>
