<svg xmlns="http://www.w3.org/2000/svg" width="30" height="23" viewBox="0 0 30 23">
  <defs>
    <style>
      .cls-1 {
        fill: #fff;
        fill-rule: evenodd;
      }
    </style>
  </defs>
  <path id="Menu-closed.svg" class="cls-1" d="M691.5,33h29a0.5,0.5,0,0,1,.5.5v1a0.5,0.5,0,0,1-.5.5h-29a0.5,0.5,0,0,1-.5-0.5v-1A0.5,0.5,0,0,1,691.5,33Zm0,7h29a0.5,0.5,0,0,1,.5.5v1a0.5,0.5,0,0,1-.5.5h-29a0.5,0.5,0,0,1-.5-0.5v-1A0.5,0.5,0,0,1,691.5,40Zm0,7h29a0.5,0.5,0,0,1,.5.5v1a0.5,0.5,0,0,1-.5.5h-29a0.5,0.5,0,0,1-.5-0.5v-1A0.5,0.5,0,0,1,691.5,47Zm0,7h29a0.5,0.5,0,0,1,.5.5v1a0.5,0.5,0,0,1-.5.5h-29a0.5,0.5,0,0,1-.5-0.5v-1A0.5,0.5,0,0,1,691.5,54Z" transform="translate(-691 -33)"/>
</svg>
