<svg xmlns="http://www.w3.org/2000/svg" width="52.031" height="22" viewBox="0 0 52.031 22">
  <defs>
    <style>
      .cls-1 {
        fill: #fff;
        fill-rule: evenodd;
      }
    </style>
  </defs>
  <path id="icon-Arrow-hover-m.svg" class="cls-1" d="M611,2428.88h48a0.993,0.993,0,0,1,1,.99v0.01a1,1,0,0,1-1,1H611a1,1,0,0,1-1-1v-0.01A0.993,0.993,0,0,1,611,2428.88Zm40.712-9.72,10,10a1.011,1.011,0,1,1-1.429,1.43l-10-10a1.013,1.013,0,0,1,0-1.43A1,1,0,0,1,651.712,2419.16Zm10,10a1.011,1.011,0,0,1,0,1.43l-10,9.99a1.007,1.007,0,1,1-1.429-1.42l10-10A1,1,0,0,1,661.716,2429.16Z" transform="translate(-610 -2418.88)"/>
</svg>
